<svg width="50" height="14" viewBox="0 0 50 14" fill="none" xmlns="http://www.w3.org/2000/svg">
<path d="M0.5 4.47616C1.24167 4.47616 1.98438 4.47616 2.75017 4.47616C2.75017 4.95455 2.75017 5.42054 2.75017 5.94749C3.34812 4.71793 4.35519 4.27158 5.60354 4.29844C6.86238 4.3253 7.81805 4.88119 8.38558 6.00328C8.58594 5.75117 8.76847 5.47633 8.99611 5.24592C9.57728 4.65697 10.3074 4.37593 11.1309 4.30877C11.6753 4.26434 12.2114 4.31084 12.7307 4.48339C13.6905 4.80059 14.2811 5.4784 14.62 6.39178C14.8634 7.04789 14.9315 7.73293 14.9326 8.42623C14.9347 10.0401 14.9336 11.6541 14.9336 13.268C14.9336 13.3083 14.9284 13.3496 14.9242 13.4064C14.1909 13.4064 13.4608 13.4064 12.7055 13.4064C12.7055 13.3258 12.7055 13.2463 12.7055 13.1667C12.7055 11.6685 12.7139 10.1714 12.6992 8.67317C12.6961 8.3291 12.6551 7.97367 12.5586 7.64407C12.3604 6.96936 11.8946 6.53644 11.1729 6.45584C10.3557 6.36492 9.66015 6.5974 9.21012 7.32893C8.98982 7.68643 8.88072 8.08319 8.87652 8.49856C8.86079 10.0432 8.85449 11.5879 8.8461 13.1337C8.8461 13.2215 8.8461 13.3093 8.8461 13.4106C8.0908 13.4106 7.35228 13.4106 6.58963 13.4106C6.58963 13.3248 6.58963 13.2442 6.58963 13.1647C6.58858 11.5642 6.59278 9.96369 6.58124 8.3632C6.57704 7.84658 6.44172 7.35579 6.0819 6.96213C5.52382 6.35149 4.81782 6.33082 4.09084 6.55917C3.25791 6.82058 2.89179 7.46015 2.79528 8.27331C2.76171 8.55745 2.76066 8.84676 2.75962 9.13297C2.75647 10.4731 2.75857 11.8142 2.75857 13.1543C2.75857 13.2349 2.75857 13.3165 2.75857 13.424C1.99592 13.424 1.24796 13.424 0.501049 13.424C0.5 10.44 0.5 7.45808 0.5 4.47616Z" fill="#0A0103"/>
<path d="M23.7506 5.53612C23.7506 5.22822 23.7506 4.86452 23.7506 4.48842C24.5049 4.48842 25.2381 4.48842 25.9882 4.48842C25.9882 7.45278 25.9882 10.4223 25.9882 13.4063C25.256 13.4063 24.5185 13.4063 23.7621 13.4063C23.7621 13.0333 23.7621 12.6603 23.7621 12.2749C23.7244 12.2873 23.7003 12.2873 23.6908 12.2997C23.0939 13.0953 22.2473 13.4611 21.2906 13.5737C19.8241 13.7473 18.5474 13.3164 17.5194 12.2573C16.7787 11.4948 16.4032 10.5628 16.2962 9.51926C16.1818 8.40853 16.3413 7.34326 16.9361 6.38441C17.8624 4.89138 19.2492 4.22288 21.0126 4.3045C21.8277 4.34273 22.5746 4.58761 23.2208 5.0939C23.4086 5.24165 23.588 5.39973 23.7506 5.53612ZM21.0819 6.36065C19.6394 6.36168 18.5464 7.46208 18.5443 8.91482C18.5422 10.3799 19.6541 11.5258 21.084 11.5299C22.5516 11.5351 23.716 10.3789 23.7139 8.92102C23.7107 7.49721 22.5411 6.35961 21.0819 6.36065Z" fill="#0A0103"/>
<path d="M43.0594 5.54085C43.0594 5.22675 43.0594 4.86201 43.0594 4.48695C43.8136 4.48695 44.5469 4.48695 45.2959 4.48695C45.2959 7.45441 45.2959 10.4239 45.2959 13.4069C44.5605 13.4069 43.8231 13.4069 43.0667 13.4069C43.0667 13.0308 43.0667 12.6588 43.0667 12.2486C42.8905 12.4315 42.753 12.5999 42.5904 12.7384C41.8519 13.3666 40.9676 13.6177 40.014 13.6115C38.7573 13.6032 37.6715 13.1538 36.8082 12.2414C36.0634 11.453 35.6878 10.5025 35.5944 9.43513C35.4958 8.30787 35.6784 7.23433 36.3078 6.27755C37.2404 4.86098 38.5978 4.22657 40.2994 4.30303C41.1218 4.34023 41.8761 4.58407 42.5275 5.09553C42.7153 5.24328 42.8926 5.40136 43.0594 5.54085ZM40.3843 6.36021C38.943 6.36228 37.8499 7.46371 37.8488 8.91644C37.8478 10.3805 38.9618 11.5264 40.3906 11.5295C41.8593 11.5326 43.0226 10.3764 43.0185 8.91851C43.0153 7.49471 41.8456 6.35814 40.3843 6.36021Z" fill="#0A0103"/>
<path d="M34.4001 7.07158C33.6899 7.07158 32.9849 7.07158 32.2821 7.07158C32.0534 6.15097 31.0893 5.7666 30.2889 6.27082C29.7025 6.64072 29.7161 7.37949 30.3445 7.66363C30.7358 7.84135 31.1701 7.92814 31.5887 8.04489C32.2338 8.22468 32.8937 8.35693 33.478 8.7072C34.7483 9.4687 35.1029 11.0671 34.2438 12.2481C33.7832 12.8805 33.1202 13.2307 32.3723 13.4281C31.1523 13.7504 29.9658 13.6833 28.8538 13.0499C27.9538 12.5364 27.4387 11.7656 27.3579 10.7313C27.3558 10.7055 27.3611 10.6786 27.3632 10.6414C28.0608 10.6414 28.7521 10.6414 29.4612 10.6414C29.5336 11.2552 29.905 11.6158 30.5019 11.7584C30.9886 11.8741 31.468 11.8317 31.9202 11.6116C32.3062 11.4236 32.4751 11.1157 32.4373 10.7365C32.4069 10.4337 32.2191 10.2426 31.9558 10.1475C31.5803 10.0122 31.1911 9.91196 30.804 9.80966C30.183 9.64538 29.5598 9.49453 28.9839 9.19282C27.5761 8.45509 27.3453 6.93416 27.8489 5.93915C28.2045 5.23552 28.7993 4.78296 29.5399 4.53705C30.8271 4.11032 32.0859 4.18781 33.2566 4.90075C34.0277 5.37087 34.3864 6.0962 34.4158 6.98272C34.4179 7.00959 34.4085 7.03542 34.4001 7.07158Z" fill="#0A0103"/>
<path d="M49.5264 4.49512C49.5264 7.46775 49.5264 10.4321 49.5264 13.4089C48.7806 13.4089 48.0431 13.4089 47.292 13.4089C47.292 10.4393 47.292 7.47601 47.292 4.49512C48.0274 4.49512 48.7648 4.49512 49.5264 4.49512Z" fill="#0A0103"/>
<path d="M49.5264 4.49512H47.293V10.5106L49.5264 7.80045V4.49512Z" fill="#ED0331"/>
<path d="M48.4005 2.48184C49.0963 2.48184 49.6604 1.92626 49.6604 1.24092C49.6604 0.555579 49.0963 0 48.4005 0C47.7047 0 47.1406 0.555579 47.1406 1.24092C47.1406 1.92626 47.7047 2.48184 48.4005 2.48184Z" fill="#0A0103"/>
</svg>
