<svg width="343" height="130" viewBox="0 0 343 130" fill="none" xmlns="http://www.w3.org/2000/svg">
<g clip-path="url(#clip0_893_1325)">
<rect width="343" height="130" fill="#EEE0FE"/>
<g opacity="0.24">
<rect width="198.5" height="198.5" transform="translate(70.5 -25)" fill="white"/>
<path d="M120.5 -25V25H70.5V-25H120.5ZM71 24.5H120V-24.5H71V24.5Z" fill="#704EE7"/>
<path d="M120.5 24.5V74.5H70.5V24.5H120.5ZM71 74H120V25H71V74Z" fill="#704EE7"/>
<path d="M170 -25V25H120V-25H170ZM120.5 24.5H169.5V-24.5H120.5V24.5Z" fill="#704EE7"/>
<path d="M170 24.5V74.5H120V24.5H170ZM120.5 74H169.5V25H120.5V74Z" fill="#704EE7"/>
<path d="M126.5 24.75C126.5 28.2018 123.702 31 120.25 31C116.798 31 114 28.2018 114 24.75C114 21.2982 116.798 18.5 120.25 18.5C123.702 18.5 126.5 21.2982 126.5 24.75Z" fill="white"/>
<path d="M122.5 24.75C122.5 25.9926 121.493 27 120.25 27C119.007 27 118 25.9926 118 24.75C118 23.5074 119.007 22.5 120.25 22.5C121.493 22.5 122.5 23.5074 122.5 24.75Z" fill="#704EE7"/>
<path d="M219.5 -25V25H169.5V-25H219.5ZM170 24.5H219V-24.5H170V24.5Z" fill="#704EE7"/>
<path d="M219.5 24.5V74.5H169.5V24.5H219.5ZM170 74H219V25H170V74Z" fill="#704EE7"/>
<path d="M269 -25V25H219V-25H269ZM219.5 24.5H268.5V-24.5H219.5V24.5Z" fill="#704EE7"/>
<path d="M269 24.5V74.5H219V24.5H269ZM219.5 74H268.5V25H219.5V74Z" fill="#704EE7"/>
<path d="M225.5 24.75C225.5 28.2018 222.702 31 219.25 31C215.798 31 213 28.2018 213 24.75C213 21.2982 215.798 18.5 219.25 18.5C222.702 18.5 225.5 21.2982 225.5 24.75Z" fill="white"/>
<path d="M221.5 24.75C221.5 25.9926 220.493 27 219.25 27C218.007 27 217 25.9926 217 24.75C217 23.5074 218.007 22.5 219.25 22.5C220.493 22.5 221.5 23.5074 221.5 24.75Z" fill="#704EE7"/>
<path d="M225.5 24.75C225.5 28.2018 222.702 31 219.25 31C215.798 31 213 28.2018 213 24.75C213 21.2982 215.798 18.5 219.25 18.5C222.702 18.5 225.5 21.2982 225.5 24.75Z" fill="white"/>
<path d="M221.5 24.75C221.5 25.9926 220.493 27 219.25 27C218.007 27 217 25.9926 217 24.75C217 23.5074 218.007 22.5 219.25 22.5C220.493 22.5 221.5 23.5074 221.5 24.75Z" fill="#704EE7"/>
<path d="M120.5 74V124H70.5V74H120.5ZM71 123.5H120V74.5H71V123.5Z" fill="#704EE7"/>
<path d="M120.5 123.5V173.5H70.5V123.5H120.5ZM71 173H120V124H71V173Z" fill="#704EE7"/>
<path d="M170 74V124H120V74H170ZM120.5 123.5H169.5V74.5H120.5V123.5Z" fill="#704EE7"/>
<path d="M170 123.5V173.5H120V123.5H170ZM120.5 173H169.5V124H120.5V173Z" fill="#704EE7"/>
<path d="M126.5 123.75C126.5 127.202 123.702 130 120.25 130C116.798 130 114 127.202 114 123.75C114 120.298 116.798 117.5 120.25 117.5C123.702 117.5 126.5 120.298 126.5 123.75Z" fill="white"/>
<path d="M122.5 123.75C122.5 124.993 121.493 126 120.25 126C119.007 126 118 124.993 118 123.75C118 122.507 119.007 121.5 120.25 121.5C121.493 121.5 122.5 122.507 122.5 123.75Z" fill="#704EE7"/>
<path d="M219.5 74V124H169.5V74H219.5ZM170 123.5H219V74.5H170V123.5Z" fill="#704EE7"/>
<path d="M219.5 123.5V173.5H169.5V123.5H219.5ZM170 173H219V124H170V173Z" fill="#704EE7"/>
<path d="M269 74V124H219V74H269ZM219.5 123.5H268.5V74.5H219.5V123.5Z" fill="#704EE7"/>
<path d="M269 123.5V173.5H219V123.5H269ZM219.5 173H268.5V124H219.5V173Z" fill="#704EE7"/>
<path d="M225.5 123.75C225.5 127.202 222.702 130 219.25 130C215.798 130 213 127.202 213 123.75C213 120.298 215.798 117.5 219.25 117.5C222.702 117.5 225.5 120.298 225.5 123.75Z" fill="white"/>
<path d="M221.5 123.75C221.5 124.993 220.493 126 219.25 126C218.007 126 217 124.993 217 123.75C217 122.507 218.007 121.5 219.25 121.5C220.493 121.5 221.5 122.507 221.5 123.75Z" fill="#704EE7"/>
<path d="M176 74.25C176 77.7018 173.202 80.5 169.75 80.5C166.298 80.5 163.5 77.7018 163.5 74.25C163.5 70.7982 166.298 68 169.75 68C173.202 68 176 70.7982 176 74.25Z" fill="white"/>
<path d="M172 74.25C172 75.4926 170.993 76.5 169.75 76.5C168.507 76.5 167.5 75.4926 167.5 74.25C167.5 73.0074 168.507 72 169.75 72C170.993 72 172 73.0074 172 74.25Z" fill="#704EE7"/>
<rect width="198.5" height="198.5" transform="translate(268.5 -25)" fill="white"/>
<path d="M318.5 -25V25H268.5V-25H318.5ZM269 24.5H318V-24.5H269V24.5Z" fill="#704EE7"/>
<path d="M318.5 24.5V74.5H268.5V24.5H318.5ZM269 74H318V25H269V74Z" fill="#704EE7"/>
<path d="M368 -25V25H318V-25H368ZM318.5 24.5H367.5V-24.5H318.5V24.5Z" fill="#704EE7"/>
<path d="M368 24.5V74.5H318V24.5H368ZM318.5 74H367.5V25H318.5V74Z" fill="#704EE7"/>
<path d="M324.5 24.75C324.5 28.2018 321.702 31 318.25 31C314.798 31 312 28.2018 312 24.75C312 21.2982 314.798 18.5 318.25 18.5C321.702 18.5 324.5 21.2982 324.5 24.75Z" fill="white"/>
<path d="M320.5 24.75C320.5 25.9926 319.493 27 318.25 27C317.007 27 316 25.9926 316 24.75C316 23.5074 317.007 22.5 318.25 22.5C319.493 22.5 320.5 23.5074 320.5 24.75Z" fill="#704EE7"/>
<path d="M318.5 74V124H268.5V74H318.5ZM269 123.5H318V74.5H269V123.5Z" fill="#704EE7"/>
<path d="M318.5 123.5V173.5H268.5V123.5H318.5ZM269 173H318V124H269V173Z" fill="#704EE7"/>
<path d="M368 74V124H318V74H368ZM318.5 123.5H367.5V74.5H318.5V123.5Z" fill="#704EE7"/>
<path d="M368 123.5V173.5H318V123.5H368ZM318.5 173H367.5V124H318.5V173Z" fill="#704EE7"/>
<path d="M324.5 123.75C324.5 127.202 321.702 130 318.25 130C314.798 130 312 127.202 312 123.75C312 120.298 314.798 117.5 318.25 117.5C321.702 117.5 324.5 120.298 324.5 123.75Z" fill="white"/>
<path d="M320.5 123.75C320.5 124.993 319.493 126 318.25 126C317.007 126 316 124.993 316 123.75C316 122.507 317.007 121.5 318.25 121.5C319.493 121.5 320.5 122.507 320.5 123.75Z" fill="#704EE7"/>
</g>
<rect y="-2" width="343" height="148" fill="url(#paint0_linear_893_1325)"/>
</g>
<defs>
<linearGradient id="paint0_linear_893_1325" x1="207.5" y1="13" x2="155" y2="120.5" gradientUnits="userSpaceOnUse">
<stop stop-color="white" stop-opacity="0"/>
<stop offset="0.427885" stop-color="white"/>
</linearGradient>
<clipPath id="clip0_893_1325">
<rect width="343" height="130" fill="white"/>
</clipPath>
</defs>
</svg>
